<?xml version="1.0" encoding="utf-8"?>
<!-- Generator: Adobe Illustrator 22.1.0, SVG Export Plug-In . SVG Version: 6.00 Build 0)  -->
<svg version="1.1" id="Layer_1" xmlns="http://www.w3.org/2000/svg" xmlns:xlink="http://www.w3.org/1999/xlink" x="0px" y="0px"
	 viewBox="0 0 530 255" style="enable-background:new 0 0 530 255;" xml:space="preserve">
<style type="text/css">
	.st0{fill:#53443B;}
</style>
<g>
	<g>
		<g>
			<path class="st0" d="M338.3,64.6c-0.5,1.7,0.2,3.3,0.1,5c-0.2,2.8-0.5,5.6-0.4,8.3c0.2,6.1-0.5,12.1-0.6,18.1
				c-0.2,6.9,0.1,13.8,0.9,20.6c0.5,4-0.5,7.9-0.4,11.9c0.1,5.6,0.1,11.1,0.5,16.7c0.3,3.9-0.4,7.9,0,11.8c0.1,0.5,0.1,1,0.4,1.5
				c0.4,0.8-0.5,1.3-1.5,1.4c-1.1,0.2-1.4-0.4-1.4-1c-0.1-2.4,0-4.8-0.2-7.3c-0.4-6.3-0.6-12.6-0.6-18.9c0-3.3,0.3-6.6,0.1-9.9
				c-0.2-4.1-0.3-8.3-0.5-12.4c-0.2-4.4-0.5-8.7-0.2-13.1c0.4-6,0.5-12,0.6-18c0.1-4.3-0.2-8.5,0.1-12.8c0.4-5.7-0.1-11.5,0.6-17.2
				c0.1-0.8,0.9-0.8,1.8-0.8c0.7,0,1.1,0.2,1.1,0.7C338.6,54.5,338.5,59.6,338.3,64.6L338.3,64.6z"/>
		</g>
	</g>
</g>
<g>
	<g>
		<g>
			<path class="st0" d="M426.1,27.4c-1.7,0.2-2.9,1.5-4.4,2.1c-2.6,0.8-5.1,1.7-7.6,2.7c-2.7,1.2-5.5,2.1-8.3,2.9
				c-2.8,0.9-5.7,1.5-8.5,2.3c-6.4,1.8-12.7,3.9-19,6.1c-1.8,0.7-3.7,0.9-5.7,1.2c-1.9,0.2-3.9,0.4-5.7,0.7
				c-5.3,1.1-10.6,1.9-15.9,2.9c-3.8,0.7-7.6,0.4-11.4,1.1c-0.5,0.1-1,0.2-1.4,0.5c-0.8,0.5-1.3-0.4-1.5-1.4
				c-0.2-1.1,0.3-1.4,0.8-1.5c2.3-0.2,4.6-0.3,6.9-0.7c6-0.9,11.9-1.9,17.9-2.9c1.6-0.3,3.1-0.5,4.7-0.7c1.6-0.2,3.1-0.5,4.6-0.9
				c3.8-1,7.7-2,11.5-3.1l6-1.9c2-0.6,4-1.2,6-1.7c5.6-1.4,11.1-3.1,16.4-5.1c1-0.3,1.9-0.7,2.9-1.1l2.8-1.2
				c1.9-0.8,3.8-1.6,5.7-2.3c1.3-0.5,2.6-1,3.8-1.5l3.7-1.8c2.5-1.2,4.9-2.5,7.5-3.4c0.7-0.2,1.1,0.5,1.5,1.2c0.3,0.6,0.3,1-0.1,1.2
				C435.1,23.4,430.6,25.5,426.1,27.4L426.1,27.4z"/>
		</g>
	</g>
</g>
<g>
	<g>
		<g>
			<path class="st0" d="M437.6,116.4c0.5-1.7-0.2-3.5,0-5.2c0.2-2.9,0.5-5.7,0.5-8.6c-0.1-6.3,0.6-12.5,0.9-18.8
				c0.3-7.1,0.1-14.2-0.6-21.4c-0.4-4.1,0.6-8.2,0.6-12.3c0-5.8,0-11.5-0.3-17.3c-0.2-4.1,0.5-8.1,0.2-12.2c0-0.5-0.1-1-0.4-1.5
				c-0.4-0.9,0.5-1.3,1.5-1.5c1.1-0.2,1.4,0.4,1.4,1c0,2.5,0,5,0.1,7.5c0.3,6.5,0.4,13,0.3,19.6c0,3.4-0.4,6.8-0.3,10.2
				c0.2,4.3,0.2,8.6,0.3,12.8c0.1,4.5,0.4,9,0,13.6c-0.5,6.2-0.7,12.4-0.9,18.6c-0.2,4.4,0,8.8-0.3,13.2c-0.5,5.9,0,11.9-0.8,17.8
				c-0.1,0.8-0.9,0.8-1.8,0.8c-0.7,0-1.1-0.2-1-0.7C437.2,126.8,437.4,121.6,437.6,116.4C437.6,116.4,437.6,116.4,437.6,116.4z"/>
		</g>
	</g>
</g>
<g>
	<g>
		<g>
			<path class="st0" d="M349,154.8c1.7,0,3-1.1,4.6-1.4c2.6-0.5,5.3-0.9,7.8-1.7c5.5-1.7,11.3-2.6,16.9-3.9
				c6.4-1.5,12.7-3.6,18.8-6.1c3.5-1.4,7.5-1.5,11.1-2.6c5.1-1.5,10.2-2.9,15.3-4.7c3.6-1.3,7.4-1.6,10.9-3c0.5-0.2,0.9-0.4,1.3-0.7
				c0.7-0.6,1.3,0.2,1.7,1.1c0.5,1,0,1.4-0.5,1.6c-2.2,0.7-4.5,1.2-6.7,2c-5.7,1.9-11.5,3.7-17.3,5.3c-3,0.8-6.1,1.3-9.1,2.4
				c-3.8,1.3-7.6,2.3-11.3,3.6c-4,1.3-7.9,2.7-12.1,3.5c-5.6,1.1-11.2,2.5-16.8,3.9c-4,1-7.8,2.3-11.8,3.1c-5.4,1-10.5,3-16,3.8
				c-0.7,0.1-1-0.7-1.2-1.5c-0.2-0.6-0.1-1.1,0.4-1.2C339.7,157,344.4,155.9,349,154.8L349,154.8z"/>
		</g>
	</g>
</g>
<g>
	<g>
		<g>
			<path class="st0" d="M278,135.2c0.8,0.8,2,0.6,2.9,1.1c1.5,0.8,3,1.7,4.7,2.3c3.6,1.2,6.8,3.3,10.2,4.9c3.9,1.8,8,3.1,12.2,4
				c2.5,0.5,4.4,2.3,6.7,3.2c3.2,1.2,6.4,2.5,9.8,3.4c2.4,0.7,4.4,2.2,6.8,2.8c0.3,0.1,0.6,0.1,1,0c0.6-0.2,0.5,0.8,0.3,1.7
				c-0.3,1.1-0.7,1.2-1.1,1.1c-1.4-0.5-2.8-1.1-4.2-1.6c-3.8-1.2-7.5-2.4-11.1-3.9c-1.9-0.8-3.7-1.8-5.6-2.4
				c-2.5-0.7-4.9-1.7-7.3-2.5c-2.6-0.8-5.2-1.6-7.6-2.9c-3.3-1.8-6.7-3.3-10.1-4.8c-2.4-1.1-5-1.9-7.3-3.2c-3.1-1.8-6.6-2.6-9.7-4.6
				c-0.4-0.3-0.1-1,0.2-1.8c0.2-0.6,0.5-0.9,0.8-0.8C272.4,132.6,275.2,133.9,278,135.2L278,135.2z"/>
		</g>
	</g>
</g>
<g>
	<g>
		<g>
			<path class="st0" d="M326.6,102c-1.3,0.1-2,1.2-3.1,1.6c-1.8,0.7-3.7,1.3-5.4,2.2c-3.7,2.1-7.8,3.3-11.6,5
				c-4.4,1.9-8.6,4.3-12.5,7.2c-2.3,1.6-5.2,2-7.7,3.3c-3.4,1.8-6.9,3.5-10.2,5.6c-2.3,1.5-5.1,2.1-7.4,3.6
				c-0.3,0.2-0.6,0.4-0.8,0.8c-0.3,0.6-1-0.1-1.6-0.9c-0.6-0.9-0.4-1.4,0-1.5c1.5-0.8,3-1.5,4.5-2.4c3.8-2.3,7.6-4.4,11.6-6.4
				c2.1-1,4.3-1.7,6.2-2.9c2.5-1.5,5.1-2.8,7.6-4.3c2.6-1.5,5.3-3.1,8.1-4.2c3.9-1.5,7.7-3.3,11.5-5c2.7-1.2,5.3-2.8,8.1-3.8
				c3.8-1.4,7.1-3.7,11-4.8c0.5-0.1,0.9,0.6,1.3,1.3c0.3,0.6,0.3,1,0,1.2C333.1,99.2,329.8,100.6,326.6,102
				C326.6,102,326.6,102,326.6,102z"/>
		</g>
	</g>
</g>
<g>
	<g>
		<g>
			<path class="st0" d="M310.2,130c0.1,0.7,0.9,0.4,1.3,0.8c0.6,0.6,1.1,1.3,1.8,1.7c1.6,0.8,2.7,2.4,4.2,3.5c1.6,1.3,3.6,2,5.8,2.3
				c1.2,0.2,1.8,1.6,2.9,2c1.5,0.7,3,1.4,4.7,1.7c1.2,0.2,1.9,1.3,3.2,1.4c0.2,0,0.3,0,0.6-0.2c0.4-0.3,0.1,0.6-0.2,1.6
				c-0.4,1-0.7,1.2-0.8,1.2c-0.7-0.2-1.4-0.6-2.1-0.7c-1.9-0.5-3.7-1.1-5.4-1.9c-0.9-0.5-1.6-1.2-2.6-1.5c-1.2-0.4-2.3-1-3.5-1.4
				c-1.3-0.5-2.6-0.9-3.5-1.9c-1.3-1.3-2.8-2.3-4.3-3.5c-1-0.8-2.2-1.3-3.1-2.3c-1.2-1.4-2.9-1.9-3.8-3.6c-0.1-0.2,0.4-0.9,0.9-1.5
				c0.4-0.5,0.7-0.8,0.8-0.7C308,128,309.1,129,310.2,130L310.2,130z"/>
		</g>
	</g>
</g>
<g>
	<g>
		<g>
			<path class="st0" d="M331.7,111.5c-0.7-0.2-0.9,0.7-1.5,0.8c-0.9,0.2-1.9,0.4-2.6,0.9c-1.7,1.1-3.8,1.6-5.6,2.5
				c-2.1,1-3.9,2.6-5.2,4.6c-0.8,1.1-2.4,1.2-3.4,2.1c-1.4,1.2-2.8,2.5-3.9,4c-0.8,1.1-2.2,1.5-2.9,2.7c-0.1,0.2-0.1,0.3-0.1,0.6
				c0.1,0.5-0.7-0.1-1.4-0.7c-0.8-0.7-0.9-1.1-0.7-1.2c0.6-0.6,1.2-1.2,1.7-1.8c1.3-1.7,2.8-3.3,4.5-4.7c0.9-0.7,2-1.2,2.7-2
				c1-1.1,2.1-1.9,3.2-2.9c1.1-1,2.2-2.1,3.7-2.7c2-0.7,3.8-1.7,5.7-2.6c1.3-0.6,2.5-1.5,4-1.8c2-0.5,3.5-1.8,5.6-1.9
				c0.3,0,0.6,0.8,0.9,1.5c0.3,0.6,0.3,1,0.2,1.1C334.9,110.3,333.3,110.9,331.7,111.5L331.7,111.5z"/>
		</g>
	</g>
</g>
<g>
	<g>
		<g>
			<path class="st0" d="M331,132.5c0-0.5-0.6-0.1-0.7-0.4c-0.3-0.4-0.5-0.9-0.9-1.1c-0.9-0.4-1.3-1.5-2-2.2
				c-0.8-0.8-1.9-1.2-3.3-1.2c-0.8,0-0.8-1.2-1.3-1.5c-0.8-0.4-1.5-0.9-2.5-1.1c-0.7-0.1-0.8-1.1-1.6-1.1c-0.1,0-0.2,0-0.4,0.2
				c-0.4,0.3,0.1-0.5,0.7-1.4c0.6-0.9,0.9-1.1,0.9-1c0.4,0.2,0.7,0.4,1.1,0.5c1,0.3,2,0.7,2.8,1.3c0.4,0.3,0.7,0.9,1.2,1
				c0.7,0.2,1.3,0.5,1.9,0.8c0.7,0.2,1.4,0.4,1.8,1.1c0.5,0.9,1.3,1.5,2,2.2c0.5,0.5,1.2,0.7,1.6,1.3c0.5,0.9,1.6,1,1.9,2.1
				c0,0.1-0.4,0.8-0.9,1.5c-0.4,0.6-0.6,0.8-0.7,0.8C332.1,133.7,331.6,133.1,331,132.5L331,132.5z"/>
		</g>
	</g>
</g>
<g>
	<g>
		<g>
			<path class="st0" d="M333.5,120.6c0.2-0.4-0.3,0-0.3-0.1c0-0.3,0-0.6-0.2-0.6c-0.5-0.1-0.3-0.8-0.5-1.2c-0.2-0.4-0.8-0.5-1.6-0.1
				c-0.5,0.2-0.1-0.7-0.3-0.8c-0.3-0.2-0.6-0.4-1.2-0.3c-0.4,0.1-0.1-0.6-0.6-0.5c-0.1,0-0.1,0.1-0.3,0.2c-0.3,0.3,0.2-0.4,0.9-1.2
				c0.7-0.9,0.9-1.1,0.9-1c0.2,0.1,0.3,0.2,0.5,0.2c0.5,0,1,0.1,1.3,0.3c0.2,0.1,0.1,0.5,0.4,0.5c0.4,0,0.6,0.1,0.9,0.1
				c0.4,0,0.8,0,0.8,0.4c0,0.6,0.3,0.9,0.5,1.2c0.2,0.2,0.5,0.2,0.6,0.6c0,0.6,0.7,0.4,0.5,1.1c0,0.1-0.5,0.8-1.1,1.4
				c-0.4,0.5-0.7,0.8-0.7,0.8C333.8,121.2,333.6,120.9,333.5,120.6C333.5,120.6,333.5,120.6,333.5,120.6z"/>
		</g>
	</g>
</g>
<g>
	<g>
		<g>
			<path class="st0" d="M332.7,120.4c-0.5-0.2-0.3,0.6-0.7,0.7c-0.5,0.2-1.1,0.3-1.4,0.7c-0.7,0.9-2,1-3,1.6
				c-1.1,0.6-1.9,1.7-2.4,3.1c-0.3,0.8-1.5,0.5-2,1c-0.7,0.7-1.5,1.4-2.1,2.3c-0.4,0.7-1.4,0.6-1.7,1.4c0,0.1-0.1,0.2,0,0.5
				c0.1,0.4-0.5-0.2-1.1-1c-0.7-0.8-0.8-1.1-0.7-1.2c0.3-0.3,0.7-0.6,0.9-1c0.7-1,1.5-1.9,2.4-2.6c0.5-0.4,1.1-0.5,1.5-1
				c0.4-0.7,1-1.2,1.5-1.8c0.5-0.7,1-1.4,1.8-1.6c1.1-0.4,2-1,3-1.6c0.7-0.4,1.1-1.1,1.9-1.3c1.1-0.3,1.6-1.4,2.8-1.5
				c0.2,0,0.7,0.6,1.2,1.3c0.4,0.5,0.6,0.9,0.5,0.9C334.3,119.5,333.5,119.9,332.7,120.4C332.7,120.4,332.7,120.4,332.7,120.4z"/>
		</g>
	</g>
</g>
<g>
	<g>
		<g>
			<path class="st0" d="M335.1,130.9c-0.5-0.2-0.2,0.5-0.4,0.5c-0.4,0.1-0.9,0.1-1.1,0.5c-0.4,0.7-1.5,0.8-2.1,1.3
				c-0.8,0.6-1.1,1.6-0.9,2.8c0.1,0.7-1,0.6-1.2,1.1c-0.3,0.7-0.6,1.4-0.5,2.2c0.1,0.6-0.8,0.8-0.5,1.4c0,0.1,0.1,0.2,0.3,0.3
				c0.4,0.2-0.5,0-1.5-0.3c-1.1-0.3-1.3-0.5-1.3-0.5c0.1-0.4,0.2-0.7,0.2-1.1c0-1,0.2-2,0.6-2.8c0.2-0.4,0.7-0.7,0.8-1.2
				c0.1-0.7,0.4-1.2,0.6-1.8c0.2-0.7,0.4-1.4,1.1-1.7c0.9-0.4,1.6-1.1,2.3-1.6c0.5-0.4,0.8-1,1.5-1.2c0.9-0.2,1.3-1.2,2.4-1
				c0.1,0,0.6,0.7,1,1.4c0.4,0.6,0.5,0.9,0.5,0.9C336.3,130.3,335.7,130.6,335.1,130.9L335.1,130.9z"/>
		</g>
	</g>
</g>
<g>
	<g>
		<g>
			<path class="st0" d="M408,91.2c-0.4,1,0.1,2-0.2,3c-0.5,1.6-1.3,2.9-2,4.3c-0.8,1.6-2,2.9-3.4,3.8c-1.4,1-3.1,1.6-4.7,2
				c-1.9,0.4-3.7,0.5-5.7,0.3c-1.9-0.2-3.8-0.8-5.7-1.9c-1.1-0.7-1.7-1.8-2.1-2.9c-0.4-1.1-0.6-2.3-0.8-3.4
				c-0.3-1.6-0.3-3.3,0.2-4.9c0.5-1.6,1.4-3.1,2.6-4.4c0.9-0.9,2-1.4,3.2-1.8c1.2-0.3,2.4-0.4,3.7-0.6c0.3,0,0.7-0.1,1-0.3
				c0.7-0.3,0.7,0.7,0.5,1.7c-0.2,1.1-0.6,1.3-0.8,1.2c-1.1-0.2-2.3-0.1-3.3,0.3c-1.3,0.6-2.5,1.5-3.3,2.7c-0.8,1.1-1.2,2.4-1.3,3.7
				c-0.1,1.4-0.1,3,0.8,4.2c1.1,1.5,2.4,2.7,4.1,3.2c1.8,0.5,3.6,0.4,5.5,0.3c2.6-0.1,5-1.8,6.6-4c1.2-1.6,1.6-3.6,2.1-5.5
				c0.3-1.3,0.1-2.6-0.4-3.7c-0.5-1.1-1.3-2-2.4-2.8c-0.3-0.2-0.1-1,0.1-1.8c0.2-0.7,0.4-1,0.8-0.9C406.7,84.5,408.1,88.2,408,91.2
				L408,91.2z"/>
		</g>
	</g>
</g>
<g>
	<g>
		<g>
			<path class="st0" d="M400.3,77.5c-0.4-0.3,0,0.3-0.2,0.3c-0.3,0-0.6,0-0.7,0.2c-0.1,0.5-0.9,0.5-1.3,0.8
				c-0.4,0.4-0.4,1.2,0.3,1.8c0.4,0.3-0.6,0.5-0.5,0.8c0.1,0.4,0.1,0.9,0.6,1.1c0.3,0.2-0.3,0.6,0.2,0.7c0.1,0,0.1,0,0.4-0.1
				c0.4-0.1-0.4,0.3-1.3,0.7c-1,0.5-1.3,0.5-1.3,0.5c-0.1-0.2-0.2-0.5-0.4-0.7c-0.5-0.5-0.9-1.2-0.9-2c0-0.4,0.3-0.7,0.2-1.1
				c-0.2-0.5-0.1-1-0.2-1.5c-0.1-0.5-0.1-1.2,0.4-1.5c0.7-0.5,1.1-1,1.6-1.4c0.4-0.3,0.5-0.9,1.1-0.9c0.7-0.1,1-0.9,1.8-0.6
				c0.1,0,0.5,0.8,0.8,1.5c0.3,0.6,0.4,1,0.4,1C401.1,77.4,400.7,77.4,400.3,77.5L400.3,77.5z"/>
		</g>
	</g>
</g>
<g>
	<g>
		<g>
			<path class="st0" d="M130.8,171.6c-1-0.8-2.3-0.6-3.3-1.1c-1.8-0.9-3.5-1.8-5.3-2.4c-4-1.3-7.7-3.5-11.5-5.3
				c-4.3-2.1-8.8-3.7-13.5-5c-2.7-0.8-4.8-2.8-7.3-4c-3.5-1.6-7-3.4-10.6-4.9c-2.6-1.1-4.6-3-7.2-4c-0.3-0.1-0.7-0.2-1.1-0.2
				c-0.7,0.1-0.5-0.9-0.1-1.8c0.4-1,0.9-1.1,1.3-0.9c1.5,0.8,2.9,1.7,4.5,2.3c4,1.8,7.9,3.7,11.8,5.7c2,1,3.9,2.3,6.1,3.2
				c2.7,1,5.3,2.2,8,3.2c2.8,1.1,5.7,2,8.4,3.5c3.7,2,7.5,3.6,11.3,5.2c2.7,1.2,5.6,1.9,8.2,3.2c3.6,1.8,7.5,2.4,11.1,4.3
				c0.5,0.2,0.2,1.1,0,1.8c-0.2,0.7-0.5,1-0.8,0.9C137.4,174.2,134.1,172.9,130.8,171.6L130.8,171.6z"/>
		</g>
	</g>
</g>
<g>
	<g>
		<g>
			<path class="st0" d="M144,150.9c-0.5,0.4,0.2,0.8,0.1,1.2c-0.2,0.7-0.5,1.3-0.4,2c0.2,1.5-0.5,2.9-0.6,4.4
				c-0.2,1.7,0.1,3.3,0.9,5c0.5,1-0.5,1.9-0.4,2.9c0.1,1.3,0.1,2.7,0.5,4c0.3,0.9-0.4,1.9,0,2.8c0.1,0.1,0.1,0.2,0.4,0.4
				c0.4,0.2-0.5,0.3-1.5,0.3c-1.1,0-1.4-0.1-1.4-0.2c-0.1-0.6,0-1.2-0.2-1.7c-0.4-1.5-0.6-3-0.6-4.5c0-0.8,0.3-1.6,0.1-2.4
				c-0.2-1-0.3-2-0.5-3c-0.2-1.1-0.5-2.1-0.2-3.2c0.4-1.4,0.5-2.9,0.6-4.3c0.1-1-0.2-2,0.1-3.1c0.4-1.4-0.1-2.8,0.6-4.1
				c0.1-0.2,0.9-0.2,1.8-0.2c0.7,0,1.1,0.1,1.1,0.2C144.3,148.4,144.1,149.7,144,150.9L144,150.9z"/>
		</g>
	</g>
</g>
<g>
	<g>
		<g>
			<path class="st0" d="M74.2,122.3c-0.5,0.3,0.2,0.7,0.1,1.1c-0.2,0.6-0.5,1.2-0.5,1.8c0.2,1.3-0.6,2.6-0.8,3.8
				c-0.3,1.5,0,2.9,0.7,4.5c0.4,0.9-0.6,1.7-0.6,2.5c0,1.2,0,2.4,0.3,3.6c0.2,0.9-0.5,1.7-0.1,2.5c0,0.1,0.1,0.2,0.4,0.3
				c0.4,0.2-0.5,0.2-1.5,0.2c-1.1,0-1.4-0.2-1.4-0.3c0-0.5,0-1-0.1-1.6c-0.3-1.4-0.4-2.7-0.4-4.1c0-0.7,0.4-1.4,0.2-2.1
				c-0.2-0.9-0.2-1.8-0.3-2.7c-0.2-0.9-0.4-1.9,0-2.8c0.5-1.3,0.6-2.5,0.8-3.8c0.1-0.9-0.1-1.8,0.3-2.7c0.5-1.2,0-2.5,0.8-3.6
				c0.1-0.2,0.9-0.1,1.8-0.1c0.7,0,1.1,0.1,1,0.2C74.6,120.1,74.4,121.2,74.2,122.3C74.2,122.3,74.2,122.3,74.2,122.3z"/>
		</g>
	</g>
</g>
<g>
	<g>
		<g>
			<path class="st0" d="M131.6,143.5c-0.9-0.8-2.2-0.4-3.3-0.9c-1.7-0.8-3.4-1.5-5.2-2c-3.9-1.1-7.5-3-11.2-4.6
				c-4.2-1.8-8.6-3.2-13.1-4.3c-2.6-0.6-4.7-2.6-7.1-3.6c-3.4-1.5-6.8-3.1-10.3-4.4c-2.5-0.9-4.5-2.8-7-3.7
				c-0.3-0.1-0.6-0.2-1.1-0.1c-0.7,0.1-0.5-0.8-0.1-1.8c0.4-1,0.9-1.1,1.2-0.9c1.4,0.7,2.8,1.5,4.3,2.1c3.9,1.6,7.7,3.3,11.5,5.1
				c2,0.9,3.8,2.1,5.9,2.8c2.6,0.9,5.1,1.9,7.7,2.8c2.8,0.9,5.5,1.7,8.1,3c3.6,1.8,7.3,3.2,11,4.6c1.3,0.5,2.7,0.9,4,1.3
				c1.3,0.4,2.7,0.9,4,1.4c3.5,1.5,7.3,2,10.8,3.6c0.5,0.2,0.3,1,0.1,1.8c-0.2,0.7-0.4,1-0.7,0.9
				C138.1,145.6,134.8,144.6,131.6,143.5L131.6,143.5z"/>
		</g>
	</g>
</g>
<g>
	<g>
		<g>
			<path class="st0" d="M179.8,130.7c-0.8-0.1-1.1,0.8-1.8,1c-1.1,0.3-2.2,0.5-3.2,1.1c-2.1,1.2-4.7,1.6-7,2.5c-2.6,1-5,2.5-7.2,4.4
				c-1.3,1.1-3.1,0.9-4.6,1.6c-2,1-4,2-5.9,3.3c-1.3,0.9-3.1,1-4.3,2c-0.2,0.1-0.3,0.3-0.4,0.6c-0.1,0.5-0.7-0.2-1.2-1.1
				c-0.5-1-0.4-1.3-0.2-1.4c0.9-0.5,1.8-0.9,2.6-1.4c2.2-1.4,4.4-2.7,6.7-3.8c1.2-0.6,2.6-0.8,3.7-1.6c1.4-0.9,2.9-1.7,4.4-2.5
				c1.5-0.9,3-1.9,4.8-2.4c2.4-0.6,4.6-1.6,6.9-2.5c1.6-0.6,3.1-1.6,4.8-2c2.3-0.6,4.2-2.1,6.6-2.4c0.3,0,0.7,0.7,1,1.5
				c0.3,0.6,0.4,1,0.2,1.1C183.6,129.2,181.7,129.9,179.8,130.7L179.8,130.7z"/>
		</g>
	</g>
</g>
<g>
	<g>
		<g>
			<path class="st0" d="M187.8,157.6c-0.9-0.1-1.4,0.8-2.2,1c-1.3,0.3-2.7,0.6-3.8,1.2c-2.6,1.3-5.6,1.8-8.3,2.8
				c-3.1,1.1-6.1,2.7-8.8,4.7c-1.6,1.2-3.7,1-5.5,1.8c-2.4,1.1-4.9,2.2-7.2,3.6c-1.6,1-3.7,1.1-5.3,2.2c-0.2,0.1-0.4,0.3-0.5,0.6
				c-0.2,0.5-0.8-0.2-1.2-1.1c-0.5-1-0.4-1.3-0.1-1.5c1.1-0.5,2.1-0.9,3.2-1.5c2.7-1.5,5.4-2.9,8.2-4.1c1.5-0.6,3-0.9,4.4-1.7
				c1.7-1,3.6-1.8,5.3-2.7c1.9-1,3.7-2.1,5.8-2.6c2.8-0.7,5.5-1.8,8.3-2.8c1.9-0.7,3.7-1.7,5.7-2.2c2.7-0.7,5.1-2.3,7.9-2.7
				c0.4-0.1,0.7,0.7,1,1.5c0.3,0.6,0.3,1,0.1,1.1C192.4,156,190.1,156.7,187.8,157.6C187.8,157.5,187.8,157.6,187.8,157.6z"/>
		</g>
	</g>
</g>
<g>
	<g>
		<g>
			<path class="st0" d="M178.5,142.1c-0.7-0.2-0.9,0.6-1.4,0.7c-0.9,0.1-1.8,0.2-2.6,0.6c-1.7,0.9-3.7,0.9-5.5,1.4
				c-2.1,0.6-4,1.6-5.7,3.1c-1,0.9-2.5,0.4-3.6,0.9c-1.6,0.7-3.2,1.3-4.7,2.3c-1.1,0.7-2.4,0.5-3.5,1.3c-0.1,0.1-0.2,0.2-0.3,0.5
				c-0.1,0.5-0.5-0.3-0.9-1.2c-0.4-1-0.4-1.3-0.2-1.4c0.7-0.3,1.4-0.6,2.1-1c1.7-1,3.5-1.9,5.3-2.6c1-0.4,2-0.4,2.9-1
				c1.1-0.7,2.3-1.2,3.5-1.8c1.2-0.7,2.4-1.4,3.8-1.6c1.9-0.3,3.7-0.9,5.5-1.4c1.3-0.4,2.4-1.1,3.8-1.3c1.8-0.2,3.3-1.4,5.2-1.4
				c0.3,0,0.6,0.8,0.9,1.6c0.2,0.6,0.3,1,0.2,1.1C181.5,141.3,180,141.7,178.5,142.1L178.5,142.1z"/>
		</g>
	</g>
</g>
<g>
	<g>
		<g>
			<path class="st0" d="M184.8,149.6c-0.7-0.2-1,0.7-1.5,0.8c-0.9,0.2-1.9,0.3-2.7,0.8c-1.8,1-3.9,1.2-5.9,1.8
				c-2.2,0.7-4.2,2-6.1,3.6c-1.1,1-2.7,0.6-3.9,1.2c-1.7,0.8-3.4,1.6-5,2.7c-1.1,0.8-2.6,0.7-3.7,1.6c-0.1,0.1-0.3,0.3-0.3,0.5
				c-0.1,0.5-0.6-0.3-1-1.2c-0.5-1-0.4-1.3-0.2-1.4c0.7-0.4,1.5-0.7,2.2-1.1c1.8-1.2,3.7-2.2,5.6-3.1c1-0.4,2.2-0.6,3.1-1.2
				c1.2-0.8,2.5-1.4,3.7-2.1c1.3-0.8,2.5-1.6,4-1.9c2-0.4,3.9-1.2,5.8-1.8c1.4-0.5,2.6-1.3,4-1.6c2-0.4,3.5-1.7,5.6-1.8
				c0.3,0,0.6,0.7,0.9,1.5c0.3,0.6,0.4,1,0.2,1.1C188.1,148.5,186.5,149.1,184.8,149.6L184.8,149.6z"/>
		</g>
	</g>
</g>
<g>
	<g>
		<g>
			<path class="st0" d="M113.6,100.5c-0.9-0.1-1.2,0.9-1.9,1.1c-1.2,0.4-2.4,0.7-3.4,1.3c-2.3,1.4-4.9,1.9-7.4,3
				c-2.8,1.1-5.3,2.8-7.6,4.8c-1.3,1.2-3.3,1.1-4.8,1.9c-2.1,1.2-4.3,2.3-6.3,3.7c-1.4,1-3.3,1.2-4.6,2.3c-0.2,0.1-0.3,0.3-0.4,0.6
				c-0.1,0.5-0.7-0.2-1.2-1.1c-0.6-0.9-0.5-1.3-0.2-1.4c0.9-0.5,1.9-1,2.8-1.6c2.3-1.5,4.7-3,7.1-4.2c1.3-0.6,2.7-1,3.9-1.8
				c1.5-1,3.1-1.9,4.6-2.8c1.6-1,3.2-2.1,5-2.7c2.5-0.8,4.9-1.9,7.3-2.9c1.7-0.7,3.3-1.8,5.1-2.3c2.4-0.7,4.4-2.4,7-2.8
				c0.3-0.1,0.7,0.7,1.1,1.4c0.3,0.6,0.4,1,0.2,1.1C117.7,98.8,115.7,99.6,113.6,100.5L113.6,100.5z"/>
		</g>
	</g>
</g>
<g>
	<g>
		<g>
			<path class="st0" d="M173.4,121.8c-0.9-0.7-2.1-0.4-3-0.8c-1.6-0.7-3.2-1.5-4.8-2c-3.6-1-6.9-3-10.3-4.6c-3.9-1.9-7.9-3.3-12-4.5
				c-2.4-0.7-4.2-2.7-6.4-3.9c-3.1-1.6-6.1-3.4-9.2-4.9c-2.2-1.1-3.9-3-6.1-4.1c-0.3-0.1-0.6-0.2-1-0.2c-0.7,0-0.4-0.9,0.1-1.7
				c0.5-1,1-1,1.3-0.8c1.3,0.8,2.5,1.7,3.8,2.4c3.4,1.9,6.8,3.7,10.2,5.6c1.8,1,3.3,2.3,5.2,3c2.3,1,4.6,2.1,7,3
				c1.3,0.5,2.5,0.9,3.8,1.4c1.2,0.5,2.5,1,3.6,1.7c3.2,1.8,6.6,3.2,10.1,4.5c1.2,0.5,2.5,0.9,3.7,1.2c1.2,0.4,2.5,0.8,3.7,1.3
				c3.2,1.5,6.8,1.8,10.1,3.3c0.4,0.2,0.3,1,0.1,1.8c-0.1,0.7-0.4,1-0.7,0.9C179.3,123.8,176.3,122.8,173.4,121.8L173.4,121.8z"/>
		</g>
	</g>
</g>
<g>
	<g>
		<g>
			<path class="st0" d="M73.9,155.6c0.5-0.1-0.2-0.2-0.1-0.4c0.2-0.2,0.5-0.4,0.4-0.6c-0.2-0.4,0.5-0.9,0.6-1.3
				c0.2-0.5-0.1-1-0.9-1.5c-0.5-0.3,0.5-0.6,0.4-0.9c-0.1-0.4-0.1-0.8-0.5-1.2c-0.3-0.3,0.4-0.6,0-0.9c-0.1,0-0.1-0.1-0.4-0.1
				c-0.4-0.1,0.5-0.1,1.5-0.1c1.1,0,1.4,0,1.4,0.1c0.1,0.2,0,0.4,0.2,0.5c0.4,0.5,0.6,0.9,0.6,1.4c0,0.2-0.3,0.5-0.1,0.7
				c0.2,0.3,0.3,0.6,0.5,0.9c0.2,0.3,0.5,0.6,0.2,1c-0.4,0.4-0.5,0.9-0.6,1.3c-0.1,0.3,0.2,0.6-0.1,0.9c-0.4,0.4,0.1,0.8-0.6,1.3
				c-0.1,0.1-0.9,0.1-1.8,0.1c-0.7,0-1.1,0-1.1-0.1C73.6,156.3,73.8,155.9,73.9,155.6C73.9,155.6,73.9,155.6,73.9,155.6z"/>
		</g>
	</g>
</g>
<g>
	<g>
		<g>
			<path class="st0" d="M140.6,185.3c-0.3,0.8-0.4,1.5-0.5,2.3c-0.1,0.9-0.1,1.8-0.2,2.7c-0.4-0.2-0.9-0.4-1.4-0.7
				c-3.9-2.1-4.9-2.9-7-3.8c-4.2-1.8-8-4.5-12-6.6c-4.6-2.5-9.4-4.5-14.4-6.1c-2.9-0.9-5.2-3.1-7.9-4.4c-3.8-1.8-7.6-3.6-11.6-5.1
				c-2.8-1.1-5.2-3-8-3.9c-0.4-0.1-0.7-0.2-1.2-0.2c-0.8,0.1-0.6-0.9-0.3-1.8c0.4-1,0.9-1.1,1.3-0.9c1.7,0.8,3.3,1.6,5,2.3
				c4.4,1.8,8.8,3.7,13.1,5.8c2.2,1.1,4.3,2.5,6.6,3.4c2.9,1.2,5.7,2.5,8.6,3.7c3.1,1.3,6.1,2.5,9,4.2c3.9,2.4,7.9,4.4,11.9,6.6
				c1.2,0.7,2.5,1.3,3.8,1.9l1.3,0.6c0.2,0.1,0.4,0.2,0.7,0.4c0-0.1,0.1-0.2,0.1-0.3c0.1-0.2,0.1-0.4,0.2-0.6c0,0,0.1-0.4,0.1-0.7
				l0.1-0.8l0.5-3.2c0.3-2.1,0.6-4.3,1.3-6.4c0.2-0.5,1-0.5,1.8-0.4c0.7,0.1,1,0.3,1,0.7L140.6,185.3L140.6,185.3z"/>
		</g>
	</g>
</g>
<g>
	<g>
		<g>
			<path class="st0" d="M182,171.3c-0.9-0.1-1.3,0.8-2.1,1c-1.2,0.3-2.5,0.6-3.6,1.2c-2.5,1.3-5.3,1.8-7.9,2.7
				c-3,1.1-5.7,2.6-8.3,4.6c-1.5,1.1-3.5,1-5.2,1.8c-2.3,1.1-4.6,2.1-6.8,3.5c-1.5,1-3.5,1.1-5,2.2c-0.2,0.1-0.4,0.3-0.5,0.6
				c-0.2,0.5-0.7-0.2-1.2-1.1c-0.5-1-0.4-1.3-0.1-1.5c1-0.5,2-0.9,3-1.5c2.5-1.5,5.1-2.8,7.7-4c1.4-0.6,2.9-0.9,4.2-1.7
				c1.6-1,3.4-1.8,5-2.7c1.8-1,3.5-2,5.4-2.6c2.7-0.7,5.2-1.7,7.8-2.7c1.8-0.7,3.5-1.7,5.4-2.2c2.6-0.6,4.8-2.2,7.4-2.6
				c0.4-0.1,0.7,0.7,1,1.5c0.3,0.6,0.3,1,0.1,1.1C186.3,169.7,184.2,170.5,182,171.3C182,171.3,182,171.3,182,171.3z"/>
		</g>
	</g>
</g>
<g>
	<g>
		<g>
			<path class="st0" d="M72.3,156c-0.4-0.3-0.1,0.4-0.3,0.3c-0.3,0-0.7-0.1-0.8,0.1c-0.3,0.5-1.1,0.2-1.7,0.3
				c-0.6,0.2-0.9,0.8-1,1.8c0,0.6-0.8,0-1.1,0.2c-0.4,0.3-0.7,0.6-0.9,1.2c-0.1,0.4-0.8,0-0.9,0.6c0,0.1,0,0.2,0.1,0.4
				c0.2,0.4-0.4-0.4-0.9-1.2c-0.6-0.9-0.7-1.2-0.7-1.2c0.1-0.2,0.3-0.3,0.4-0.5c0.3-0.6,0.6-1.1,1-1.4c0.2-0.2,0.6-0.1,0.8-0.4
				c0.2-0.4,0.4-0.6,0.6-1c0.2-0.4,0.4-0.8,0.8-0.8c0.7,0.1,1.1-0.2,1.6-0.3c0.4-0.1,0.5-0.6,1-0.5c0.7,0.1,0.8-0.7,1.6-0.3
				c0.1,0,0.6,0.7,1,1.4c0.4,0.6,0.6,0.9,0.5,0.9C73.2,155.8,72.8,155.9,72.3,156L72.3,156z"/>
		</g>
	</g>
</g>
<g>
	<g>
		<g>
			<path class="st0" d="M129.2,193.4c-1-0.9-2.4-0.7-3.5-1.3c-1.8-1-3.6-2-5.6-2.7c-4.2-1.5-8-4-12-6c-4.5-2.3-9.2-4.2-14.1-5.9
				c-2.8-0.9-5-3.1-7.6-4.5c-3.7-1.9-7.2-3.9-11-5.6c-2.7-1.2-4.8-3.3-7.5-4.5c-0.3-0.2-0.7-0.3-1.1-0.3c-0.8,0-0.5-0.9-0.1-1.8
				c0.5-1,1-1,1.3-0.8c1.5,0.9,3,1.8,4.6,2.6c4.2,2.1,8.3,4.2,12.3,6.4c2.1,1.1,4.1,2.6,6.3,3.5c2.8,1.2,5.5,2.5,8.3,3.7
				c3,1.2,6,2.4,8.7,4c3.8,2.2,7.8,4.1,11.8,5.9c2.8,1.3,5.8,2.3,8.6,3.7c3.7,2,7.9,2.9,11.6,5c0.5,0.3,0.2,1.1,0,1.9
				c-0.2,0.6-0.5,0.9-0.8,0.8C136.1,196.3,132.7,194.9,129.2,193.4L129.2,193.4z"/>
		</g>
	</g>
</g>
<g>
	<g>
		<g>
			<path class="st0" d="M191.8,175.9c-1.1,0-1.6,1-2.5,1.4c-1.5,0.5-3.1,0.9-4.4,1.7c-3,1.7-6.4,2.4-9.7,3.6
				c-3.7,1.3-7.1,3.2-10.5,5.3c-1.9,1.3-4.4,1.2-6.5,2c-2.9,1.2-5.9,2.3-8.7,3.7c-2,1-4.4,1.1-6.4,2.2c-0.3,0.1-0.5,0.3-0.7,0.6
				c-0.3,0.6-0.8-0.2-1.2-1.2c-0.4-1-0.2-1.4,0.1-1.5c1.3-0.5,2.6-0.9,3.8-1.4c3.3-1.5,6.5-2.9,9.9-4.1c1.7-0.7,3.6-1,5.2-1.9
				c2.1-1.1,4.2-2,6.3-3c2.2-1.1,4.4-2.3,6.7-3c3.3-1,6.4-2.3,9.5-3.6c2.2-0.9,4.3-2.2,6.6-2.9c3.1-1,5.7-3,8.9-3.8
				c0.4-0.1,0.8,0.6,1.2,1.3c0.3,0.6,0.4,1,0.1,1.1C197.1,173.6,194.4,174.8,191.8,175.9L191.8,175.9z"/>
		</g>
	</g>
</g>
<g>
	<g>
		<g>
			<path class="st0" d="M179.6,166.5c-0.7-0.2-1,0.7-1.6,0.8c-1,0.2-2,0.3-2.9,0.8c-1.9,1-4.2,1.2-6.2,1.9c-2.4,0.7-4.5,2-6.5,3.7
				c-1.1,1-2.8,0.6-4.1,1.2c-1.8,0.8-3.6,1.6-5.3,2.8c-1.2,0.8-2.8,0.7-3.9,1.6c-0.1,0.1-0.3,0.3-0.3,0.6c-0.1,0.5-0.6-0.3-1-1.2
				c-0.5-1-0.4-1.3-0.2-1.4c0.8-0.4,1.6-0.7,2.3-1.1c1.9-1.2,3.9-2.3,6-3.1c1.1-0.5,2.3-0.6,3.3-1.2c1.3-0.8,2.6-1.4,3.9-2.1
				c1.4-0.8,2.7-1.7,4.3-2c2.1-0.4,4.2-1.2,6.2-1.9c1.4-0.5,2.8-1.3,4.3-1.6c2.1-0.4,3.7-1.7,5.9-1.8c0.3,0,0.6,0.8,0.9,1.5
				c0.3,0.6,0.3,1,0.2,1.1C183,165.4,181.3,165.9,179.6,166.5L179.6,166.5z"/>
		</g>
	</g>
</g>
<g>
	<g>
		<g>
			<path class="st0" d="M66.6,178c0.5-0.3-0.2-0.6-0.1-0.9c0.2-0.5,0.4-1.1,0.3-1.6c-0.3-1.1,0.3-2.3,0.4-3.5
				c0.1-1.3-0.4-2.6-1.5-3.7c-0.6-0.6,0.2-1.6,0-2.3c-0.3-1-0.6-2-1.3-2.9c-0.5-0.6,0-1.5-0.6-2.1c-0.1-0.1-0.2-0.1-0.4-0.1
				c-0.4,0,0.4-0.4,1.3-0.7c1-0.4,1.3-0.4,1.4-0.3c0.2,0.4,0.3,0.9,0.6,1.3c0.7,1.1,1.2,2.2,1.5,3.4c0.1,0.6,0,1.3,0.3,1.9
				c0.4,0.7,0.6,1.5,0.9,2.3c0.3,0.8,0.7,1.7,0.6,2.6c-0.3,1.2-0.2,2.4-0.3,3.6c0,0.8,0.2,1.7-0.1,2.5c-0.4,1.1,0.1,2.3-0.6,3.3
				c-0.1,0.1-0.9,0.1-1.8,0.1c-0.7,0-1.1-0.1-1-0.2C66.3,179.8,66.4,178.9,66.6,178L66.6,178z"/>
		</g>
	</g>
</g>
<g>
	<g>
		<g>
			<path class="st0" d="M128.6,209.2c-0.9-0.9-2.2-0.7-3.3-1.3c-1.7-1-3.4-2-5.2-2.7c-4-1.5-7.5-3.8-11.3-5.7
				c-4.3-2.1-8.8-3.8-13.5-5c-2.7-0.7-4.9-2.7-7.4-3.8c-3.6-1.5-7.2-3-10.9-4.2c-2.6-0.8-4.9-2.6-7.5-3.3c-0.3-0.1-0.7-0.2-1.1-0.1
				c-0.7,0.1-0.6-0.8-0.3-1.8c0.3-1,0.8-1.2,1.2-1c1.6,0.6,3.1,1.3,4.7,1.9c4.2,1.4,8.3,3,12.3,4.8c2.1,0.9,4.1,2.1,6.2,2.9
				c2.7,0.9,5.4,2.1,8.1,3.1c2.9,1,5.8,2,8.5,3.5c3.7,2.1,7.5,3.8,11.2,5.6c2.7,1.3,5.5,2.2,8.1,3.7c3.5,2,7.4,3.1,10.7,5.4
				c0.4,0.3,0.1,1.1-0.2,1.8c-0.3,0.6-0.6,0.9-0.9,0.8C134.9,212.3,131.8,210.7,128.6,209.2L128.6,209.2z"/>
		</g>
	</g>
</g>
<g>
	<g>
		<g>
			<path class="st0" d="M140.3,210.1c0.5-0.3-0.2-0.5-0.1-0.7c0.2-0.4,0.4-0.8,0.3-1.2c-0.2-0.9,0.4-1.7,0.6-2.6c0.2-1-0.2-2-1-2.9
				c-0.5-0.6,0.5-1.2,0.4-1.7c-0.1-0.8-0.2-1.6-0.6-2.4c-0.3-0.6,0.4-1.1-0.1-1.7c-0.1-0.1-0.1-0.1-0.4-0.2
				c-0.4-0.1,0.5-0.2,1.5-0.2c1.1,0,1.4,0,1.4,0.1c0.1,0.3,0,0.7,0.2,1c0.4,0.9,0.6,1.8,0.7,2.7c0,0.5-0.3,1-0.1,1.4
				c0.3,0.6,0.3,1.2,0.5,1.8c0.2,0.6,0.5,1.2,0.2,1.9c-0.4,0.9-0.4,1.7-0.6,2.6c-0.1,0.6,0.2,1.2-0.1,1.8c-0.4,0.8,0.2,1.6-0.5,2.5
				c-0.1,0.1-0.9,0.1-1.7,0.2c-0.7,0-1.1,0-1.1-0.1C140.1,211.5,140.2,210.8,140.3,210.1L140.3,210.1z"/>
		</g>
	</g>
</g>
<g>
	<g>
		<g>
			<path class="st0" d="M195.5,195.6c-1.1,0.1-1.6,1.1-2.6,1.5c-1.6,0.6-3.1,1.1-4.6,1.9c-3.1,1.7-6.7,2.6-10,3.8
				c-3.8,1.3-7.5,3.1-11.1,5.1c-2.1,1.2-4.6,1-6.8,1.7c-3.1,1-6.3,1.9-9.4,3.1c-2.2,0.8-4.6,0.6-6.8,1.5c-0.3,0.1-0.6,0.2-0.8,0.5
				c-0.4,0.5-0.8-0.3-1.1-1.3c-0.3-1.1,0-1.4,0.3-1.5c1.4-0.3,2.8-0.6,4.1-1c3.5-1.1,7-2.2,10.5-3.2c1.8-0.5,3.8-0.7,5.5-1.5
				c2.2-0.9,4.5-1.8,6.7-2.7c1.2-0.5,2.3-1.1,3.5-1.6c1.2-0.5,2.3-1,3.6-1.3c3.4-0.9,6.6-2.2,9.8-3.6c1.1-0.5,2.2-1.1,3.3-1.6
				c1.1-0.6,2.2-1.1,3.4-1.5c3.2-1.1,5.8-3.3,9-4.4c0.4-0.1,0.9,0.6,1.3,1.3c0.4,0.6,0.4,1,0.2,1.1
				C200.9,193,198.2,194.3,195.5,195.6L195.5,195.6z"/>
		</g>
	</g>
</g>
<g>
	<g>
		<g>
			<path class="st0" d="M195.8,186.8c0.5-0.2-0.2-0.3-0.1-0.5c0.2-0.3,0.5-0.5,0.4-0.8c-0.2-0.6,0.5-1.2,0.6-1.8
				c0.2-0.7-0.1-1.3-0.9-2c-0.5-0.4,0.5-0.8,0.4-1.2c-0.1-0.5-0.1-1.1-0.5-1.6c-0.3-0.4,0.4-0.8,0-1.1c-0.1,0-0.1-0.1-0.4-0.1
				c-0.4-0.1,0.5-0.1,1.5-0.1c1.1,0,1.4,0,1.4,0.1c0.1,0.2,0,0.5,0.2,0.7c0.4,0.6,0.6,1.2,0.6,1.8c0,0.3-0.3,0.6-0.1,1
				c0.2,0.4,0.3,0.8,0.5,1.2c0.2,0.4,0.5,0.8,0.2,1.3c-0.4,0.6-0.5,1.2-0.6,1.7c-0.1,0.4,0.2,0.8-0.1,1.2c-0.4,0.6,0.1,1.1-0.6,1.7
				c-0.1,0.1-0.9,0.1-1.8,0.1c-0.7,0-1.1,0-1.1-0.1C195.5,187.8,195.6,187.3,195.8,186.8L195.8,186.8z"/>
		</g>
	</g>
</g>
<g>
	<g>
		<g>
			<path class="st0" d="M184.2,188.7c-0.8-0.2-1.2,0.6-1.8,0.7c-1.1,0.1-2.2,0.2-3.2,0.6c-2.1,0.9-4.6,0.9-6.8,1.5
				c-2.6,0.6-5,1.7-7.3,3.2c-1.3,0.9-3,0.5-4.4,1c-2,0.8-3.9,1.6-5.7,2.8c-1.2,0.8-2.9,0.8-4,1.9c-0.1,0.1-0.3,0.3-0.3,0.6
				c-0.1,0.5-0.6-0.2-1.2-1.1c-0.6-0.9-0.5-1.3-0.3-1.4c0.8-0.5,1.7-0.9,2.4-1.4c2.1-1.4,4.3-2.5,6.6-3.4c1.2-0.4,2.5-0.6,3.6-1.1
				c1.4-0.7,2.9-1.3,4.4-1.9c1.5-0.7,3-1.5,4.7-1.7c2.3-0.3,4.5-0.9,6.8-1.5c1.6-0.4,3.1-1.1,4.7-1.3c2.2-0.2,4.1-1.4,6.4-1.4
				c0.3,0,0.6,0.8,0.8,1.6c0.2,0.6,0.2,1,0.1,1.1L184.2,188.7L184.2,188.7z"/>
		</g>
	</g>
</g>
<g>
	<g>
		<g>
			<path class="st0" d="M173.9,198.9c-0.4-0.3-0.4,0.4-0.7,0.4c-0.5,0-1-0.1-1.4,0.1c-0.8,0.6-2,0.3-2.9,0.4c-1.1,0.2-2,0.9-2.8,2
				c-0.4,0.7-1.4,0-1.9,0.3c-0.8,0.4-1.6,0.8-2.3,1.5c-0.5,0.5-1.3,0.1-1.8,0.7c-0.1,0.1-0.1,0.2-0.1,0.4c0,0.4-0.4-0.4-0.7-1.3
				c-0.4-1-0.4-1.3-0.4-1.4c0.3-0.2,0.7-0.3,1-0.6c0.8-0.7,1.7-1.3,2.6-1.6c0.5-0.2,1.1-0.1,1.5-0.5c0.5-0.5,1.1-0.7,1.7-1.2
				c0.6-0.4,1.1-1,1.9-0.9c1,0,2-0.2,2.9-0.5c0.7-0.2,1.2-0.6,2-0.6c1,0.1,1.7-0.8,2.8-0.5c0.1,0,0.4,0.8,0.7,1.6
				c0.2,0.6,0.3,1,0.3,1C175.5,198.6,174.7,198.7,173.9,198.9L173.9,198.9z"/>
		</g>
	</g>
</g>
<g>
	<g>
		<g>
			<path class="st0" d="M186.7,136.3c0.5-0.1-0.2-0.2-0.1-0.3c0.2-0.2,0.4-0.4,0.3-0.6c-0.2-0.4,0.4-0.9,0.6-1.3
				c0.2-0.5-0.2-1-1-1.4c-0.5-0.3,0.5-0.6,0.4-0.8c-0.1-0.4-0.2-0.8-0.6-1.1c-0.3-0.3,0.4-0.6,0-0.8c-0.1,0-0.1-0.1-0.4-0.1
				c-0.4,0,0.5-0.1,1.5-0.2c1.1-0.1,1.4,0,1.4,0c0.1,0.2,0,0.3,0.2,0.5c0.4,0.4,0.6,0.9,0.7,1.3c0,0.2-0.3,0.5-0.1,0.7
				c0.3,0.3,0.3,0.6,0.5,0.8c0.2,0.3,0.5,0.6,0.2,0.9c-0.4,0.4-0.4,0.9-0.6,1.3c-0.1,0.3,0.2,0.6-0.1,0.9c-0.4,0.4,0.2,0.8-0.5,1.2
				c-0.1,0.1-0.9,0.1-1.7,0.1c-0.7,0-1.1,0-1.1,0C186.5,137,186.6,136.6,186.7,136.3L186.7,136.3z"/>
		</g>
	</g>
</g>
<g>
	<g>
		<g>
			<path class="st0" d="M256,181.2c-0.1-0.8-1.1-0.8-1.5-1.3c-0.6-0.9-1.2-1.9-2-2.6c-1.8-1.5-3-3.7-4.5-5.5
				c-1.7-2.1-3.9-3.7-6.3-5.1c-1.4-0.8-1.8-2.6-3-3.6c-1.6-1.5-3.1-3-5-4.3c-1.3-0.9-1.9-2.5-3.2-3.3c-0.2-0.1-0.4-0.2-0.7-0.1
				c-0.5,0.1,0-0.7,0.7-1.5c0.7-0.8,1.1-0.9,1.3-0.7c0.7,0.6,1.3,1.3,2.1,1.9c2,1.5,3.9,3.1,5.6,4.8c0.9,0.9,1.6,2,2.6,2.8
				c1.3,1,2.5,2.1,3.7,3.1c1.3,1.1,2.7,2.1,3.7,3.5c1.3,2,2.9,3.7,4.5,5.4c1.1,1.3,2.5,2.2,3.4,3.7c1.3,1.9,3.2,3.1,4.3,5.2
				c0.1,0.3-0.4,0.9-1,1.5c-0.5,0.5-0.8,0.7-0.9,0.5C258.5,184.2,257.3,182.7,256,181.2L256,181.2z"/>
		</g>
	</g>
</g>
<g>
	<g>
		<g>
			<path class="st0" d="M263.5,182.1c0.3-0.1,0.3-0.5,0.2-0.7c-0.1-0.3-0.3-0.5-0.3-0.8c-0.1-1-0.7-2.2-1.8-3.1
				c-2.4-2.1-4.2-4.9-6.4-7.3c-2.5-2.7-5.3-5.1-8.4-7.1c-1.8-1.2-2.7-3.3-4.2-4.8c-2.2-2-4.3-4.1-6.7-5.9c-0.2-0.2-0.5-0.4-0.7-0.6
				l-0.2-0.2c0,0,0,0-0.1-0.1l-0.2-0.4c-0.1,0-0.2,0.1-0.3,0.2c-0.1,0.1,0,0.1-0.4,0.6c-0.1,0.2-0.3,0.5-0.2,0.8
				c0,0.6-0.8,0.2-1.6-0.4c-0.9-0.7-0.9-1.1-0.7-1.3l0.6-0.7l0.7-0.9c0.6-0.7,1.1-1.4,1.7-2.1c1.5,1.3,3.1,2.6,4.6,3.9
				c1.3,1.1,2.5,2.3,3.7,3.4c1.2,1.2,2.3,2.7,3.6,3.8c1.7,1.4,3.3,2.9,5,4.3c1.8,1.5,3.6,2.9,5.1,4.8c2,2.5,4.2,4.8,6.4,7.2
				c0.8,0.8,1.7,1.6,2.5,2.7c0.4,0.5,0.7,1.2,1,1.9c0.2,0.7,0.3,1.5,0.1,2.3c-0.1,0.6-0.3,1.1-0.6,1.6c-0.1,0.2-0.1,0.2-0.2,0.3
				c-0.1,0.1-0.1,0.1-0.2,0.2c-0.1,0-0.1,0.1-0.2,0.1c0,0,0,0,0,0.1l0.1,0.1l0.3,0.3l0.8,0.7c0.8,0.8,1.5,1.6,2.2,2.5
				c0.2,0.3-0.3,1-0.9,1.6c-0.5,0.5-0.8,0.7-1,0.5l-2.3-2.4l-0.3-0.3l-0.4-0.4l-1-1c-0.6-0.7-1.5-1.4-1.7-1.9
				c0.5-0.3,1.1-0.6,1.6-0.9c0.2-0.1,0.5-0.3,0.6-0.4L263.5,182.1L263.5,182.1L263.5,182.1z"/>
		</g>
	</g>
</g>
<g>
	<g>
		<g>
			<path class="st0" d="M229.6,148.2c0.2-0.4-0.4-0.1-0.4-0.3c-0.1-0.3-0.1-0.7-0.3-0.9c-0.6-0.3-0.5-1.2-0.9-1.8
				c0-0.1-0.1-0.1-0.1-0.2l1-0.2c-0.3,0.4,0.1,1.1,0.9,1.1c0.3,0,0.2,0.1,0.1,0.3c-0.1,0.2-0.2,0.4-0.1,0.5c0.3,0.2,0.7,0.5,1.1,0.2
				c0.1-0.1,0.1,0,0.2,0.1c0,0.1,0.1,0.2,0.2,0c0-0.1,0-0.1,0-0.4c-0.1-0.4,0.1,0.5,0.3,1.5c0.2,1.1,0.2,1.4,0.1,1.4
				c-0.3,0.1-0.6,0.1-1,0.2c-0.9,0.2-2-0.1-2.6-0.7c-0.3-0.4-0.4-0.9-0.8-1.2c-0.5-0.4-0.8-1-1-1.7c-0.3-0.7-0.4-1.6,0.1-2.3
				l2.8-3.5l0.7,2.9l0,0.1c0.1,0.7,0.5,1.2,0.9,1.7c0.2,0.4,0.7,0.5,0.8,1c0.1,0.7,0.9,0.7,0.8,1.6c0,0.1-0.6,0.7-1.2,1.3
				c-0.5,0.5-0.8,0.7-0.8,0.7L229.6,148.2L229.6,148.2z"/>
		</g>
	</g>
</g>
<g>
	<g>
		<g>
			<path class="st0" d="M231.5,156.4c0.2,0.4,0-0.2,0.1-0.2c0.1,0.2,0.3,0.4,0.3,0.2c0-0.3,0.5,0.3,0.7,0.4c0.2,0.1,0.3-0.3,0.1-1.1
				c-0.1-0.5,0.4,0.4,0.4,0.3c0.1-0.1,0.2-0.2,0.1-0.7c0-0.3,0.3,0.3,0.3-0.1c0-0.1,0-0.1-0.1-0.4c-0.2-0.4,0.2,0.4,0.6,1.4
				c0.5,1,0.6,1.3,0.6,1.3c0,0.1-0.1,0.1-0.1,0.2c0,0.4,0,0.7-0.2,0.7c-0.1,0-0.3-0.2-0.3,0c0,0.3-0.1,0.3-0.1,0.6
				c0,0.2,0,0.5-0.2,0.3c-0.3-0.3-0.5-0.3-0.7-0.4c-0.1,0-0.1,0.2-0.3,0c-0.3-0.3-0.2,0.2-0.6-0.3c-0.1-0.1-0.4-0.8-0.7-1.6
				c-0.3-0.6-0.4-1-0.4-1C231.2,156.3,231.4,156.4,231.5,156.4L231.5,156.4z"/>
		</g>
	</g>
</g>
<g>
	<g>
		<g>
			<path class="st0" d="M237.5,167.7c0.2-0.4-0.4-0.1-0.4-0.4c0-0.4,0-0.8-0.3-1c-0.6-0.4-0.5-1.3-0.8-2c-0.3-0.7-1.1-1.1-2.2-1.2
				c-0.6-0.1-0.2-1-0.5-1.3c-0.5-0.4-0.9-0.9-1.6-1.1c-0.5-0.2-0.2-0.9-0.9-1c-0.1,0-0.2,0-0.4,0.1c-0.4,0.2,0.3-0.4,1.1-1.1
				c0.8-0.7,1.1-0.8,1.2-0.8c0.2,0.2,0.4,0.4,0.6,0.5c0.7,0.3,1.4,0.7,1.8,1.3c0.2,0.3,0.2,0.8,0.6,0.9c0.5,0.2,0.8,0.5,1.3,0.8
				c0.5,0.3,1,0.5,1.1,1c0.1,0.8,0.5,1.4,0.8,2c0.2,0.4,0.7,0.6,0.8,1.2c0.1,0.8,0.9,0.9,0.8,1.9c0,0.1-0.7,0.7-1.3,1.2
				c-0.5,0.4-0.8,0.6-0.9,0.6C238,168.7,237.7,168.2,237.5,167.7L237.5,167.7z"/>
		</g>
	</g>
</g>
<g>
	<g>
		<g>
			<path class="st0" d="M491.6,126.7c-0.6-1-1.8-1-2.5-1.7c-1.3-1.1-2.5-2.3-4-3c-3.2-1.7-6.1-4.1-9.2-6c-3.6-2.1-7.6-3.5-11.8-4.3
				c-2.4-0.5-4.3-2.2-6.6-2.9c-3.2-1-6.4-2-9.8-2.6c-2.4-0.4-4.5-1.7-6.9-1.9c-0.3,0-0.6,0-1,0.1c-0.6,0.3-0.6-0.7-0.5-1.7
				c0.2-1.1,0.6-1.3,0.9-1.2c1.4,0.3,2.9,0.7,4.3,1c3.8,0.7,7.6,1.6,11.3,2.8c1.9,0.7,3.7,1.6,5.7,2.1c2.5,0.7,4.9,1.6,7.3,2.4
				c1.3,0.5,2.6,0.9,3.8,1.4c1.2,0.5,2.5,1.1,3.6,1.9c3.1,2.1,6.4,3.9,9.4,6l3.3,2.1c1.1,0.7,2.2,1.5,3.2,2.4
				c0.7,0.6,1.4,1.2,2.1,1.7l2.1,1.6c1.4,1.1,2.7,2.3,3.8,3.7c0.3,0.4-0.2,1-0.8,1.6c-0.4,0.5-0.8,0.7-1,0.5
				C496.2,130.6,493.9,128.6,491.6,126.7L491.6,126.7z"/>
		</g>
	</g>
</g>
<g>
	<g>
		<g>
			<path class="st0" d="M307.1,91.1c-3-0.5-6.1,0.2-9.1,0c-5-0.2-10.1-0.5-15.2-0.3c-5.5,0.2-11,0.2-16.5,0.2c-5.5,0-11,0-16.5,0.2
				c-12.5,0.4-25,1.5-37.4,3.4c-3.6,0.5-7.2,0.8-10.8,0.9c-3.6,0.2-7.2,0.3-10.8,0.8c-10,1.2-20.1,2.5-30,4.3
				c-7,1.3-14.2,1.7-21.2,3.3c-0.9,0.2-1.8,0.4-2.6,0.8c-1.4,0.7-2.4-0.1-2.8-1.1c-0.5-1,0.5-1.5,1.5-1.7c4.3-0.8,8.7-1.5,13-2.3
				c11.3-2.1,22.7-3.9,34.1-5.2c3-0.4,6-0.6,9-0.9c3-0.3,6-0.6,8.9-0.9c7.5-1,15-1.7,22.5-2.4c4-0.4,7.9-0.8,11.9-1.1
				c4-0.3,8-0.5,12-0.6c10.9-0.1,21.9-0.5,32.8-0.4c3.9,0,7.8-0.1,11.7-0.1c3.9,0,7.8,0,11.6,0.2c2.6,0.1,5.2,0.2,7.8,0.3l7.8,0.2
				c5.2,0.1,10.4,0.4,15.6,0.9c1.4,0.1,1.4,1,1.4,1.8c0,0.7-0.5,1-1.3,1C325.4,91.8,316.3,91.4,307.1,91.1L307.1,91.1z"/>
		</g>
	</g>
</g>
<g>
	<g>
		<g>
			<path class="st0" d="M74.3,116.8c-1.2-0.2-2.1,0.7-3.2,0.9c-1.8,0.2-3.7,0.4-5.5,1c-3.8,1.2-7.9,1.5-11.8,2.3
				c-4.5,1-8.8,2.4-13,4.4c-2.4,1.1-5.2,0.9-7.7,1.7c-3.5,1.1-7.1,2.2-10.5,3.6c-2.4,1-5.1,1.1-7.5,2.3c-0.3,0.2-0.6,0.3-0.8,0.7
				c-0.4,0.6-1-0.2-1.4-1.2c-0.4-1-0.2-1.4,0.2-1.5c1.5-0.5,3.1-1,4.6-1.6c3.9-1.6,7.9-3,11.9-4.1c2.1-0.6,4.3-0.9,6.3-1.7
				c2.6-1,5.2-1.7,7.8-2.7c2.8-1,5.5-2,8.4-2.4c4-0.6,7.8-1.5,11.8-2.4c2.8-0.6,5.5-1.5,8.3-1.9c3.8-0.5,7.4-1.9,11.3-2
				c0.5,0,0.7,0.8,0.9,1.6c0.2,0.7,0.1,1.1-0.2,1.1L74.3,116.8L74.3,116.8z"/>
		</g>
	</g>
</g>
</svg>
